<svg xmlns="http://www.w3.org/2000/svg" viewBox="0 0 312.5 250"><defs><style>.cls-1{fill:#fff;}</style></defs><title>Asset 14</title><g id="Layer_2" data-name="Layer 2"><g id="Layer_1-2" data-name="Layer 1"><path class="cls-1" d="M156.25,93.75a46.88,46.88,0,1,0,46.87,46.87A46.87,46.87,0,0,0,156.25,93.75Zm125-46.87h-37.5A13.93,13.93,0,0,1,231.41,38L221.72,8.89A13.94,13.94,0,0,0,209.37,0H103.12A13.93,13.93,0,0,0,90.78,8.89L81.09,38a13.93,13.93,0,0,1-12.34,8.9H31.25A31.34,31.34,0,0,0,0,78.12V218.75A31.34,31.34,0,0,0,31.25,250h250a31.34,31.34,0,0,0,31.25-31.25V78.12A31.34,31.34,0,0,0,281.25,46.88Zm-125,171.87a78.13,78.13,0,1,1,78.12-78.13A78.13,78.13,0,0,1,156.25,218.75ZM270.31,100A10.94,10.94,0,1,1,281.25,89,10.95,10.95,0,0,1,270.31,100Z"/></g></g></svg>