<svg xmlns="http://www.w3.org/2000/svg" viewBox="0 0 50 50"><defs><style>.cls-1{fill:#dd1c1a;}</style></defs><title>Asset 6</title><g id="Layer_2" data-name="Layer 2"><g id="Layer_1-2" data-name="Layer 1"><path class="cls-1" d="M25,0A25,25,0,1,0,50,25,25,25,0,0,0,25,0Zm1.07,47.8V43.4a1.07,1.07,0,1,0-2.14,0v4.4A22.84,22.84,0,0,1,2.2,26.07H6.6a1.07,1.07,0,1,0,0-2.14H2.2A22.84,22.84,0,0,1,23.93,2.2V6.6a1.07,1.07,0,1,0,2.14,0V2.2A22.84,22.84,0,0,1,47.8,23.93H43.4a1.07,1.07,0,1,0,0,2.14h4.41A22.83,22.83,0,0,1,26.07,47.8Z"/><path class="cls-1" d="M36.31,35,26.07,24.56V13.74a1.07,1.07,0,0,0-2.14,0V25a1.06,1.06,0,0,0,.31.75L34.78,36.48A1.07,1.07,0,1,0,36.31,35Z"/></g></g></svg>