<svg xmlns="http://www.w3.org/2000/svg" viewBox="0 0 200 200"><defs><style>.cls-1{fill:#fff;}</style></defs><title>Asset 5</title><g id="Layer_2" data-name="Layer 2"><g id="Layer_1-2" data-name="Layer 1"><path class="cls-1" d="M121.09,74.22a3.91,3.91,0,1,0,3.91,3.9A3.91,3.91,0,0,0,121.09,74.22Z"/><path class="cls-1" d="M195.42,173.33l-52.14-52.14a77.4,77.4,0,0,0,13-43.07,78.13,78.13,0,1,0-78.13,78.13,77.4,77.4,0,0,0,43.07-13l14.41,14.41h0l37.72,37.72a15.62,15.62,0,1,0,22.09-22.09Zm-76.07-38.28h0a70.39,70.39,0,1,1,15.7-15.7A70.44,70.44,0,0,1,119.35,135.05Zm8.2,3.54a78.9,78.9,0,0,0,11-11l11.08,11.08a94.35,94.35,0,0,1-11,11ZM189.9,189.9a7.81,7.81,0,0,1-11.05,0l-34.68-34.69a102.75,102.75,0,0,0,11-11l34.69,34.68a7.81,7.81,0,0,1,0,11.05Z"/><path class="cls-1" d="M78.12,15.62a62.5,62.5,0,1,0,62.5,62.5A62.57,62.57,0,0,0,78.12,15.62Zm0,117.19a54.69,54.69,0,1,1,54.69-54.69A54.74,54.74,0,0,1,78.12,132.81Z"/><path class="cls-1" d="M121.9,61.36A46.95,46.95,0,0,0,78.12,31.25a3.91,3.91,0,0,0,0,7.81,39.34,39.34,0,0,1,36.49,25.1,3.9,3.9,0,0,0,7.29-2.8Z"/></g></g></svg>