<svg xmlns="http://www.w3.org/2000/svg" viewBox="0 0 278.26 250"><defs><style>.cls-1{fill:#fff;}</style></defs><title>Asset 16</title><g id="Layer_2" data-name="Layer 2"><g id="Layer_1-2" data-name="Layer 1"><path class="cls-1" d="M139.13,54.35a5.44,5.44,0,1,0,5.44,5.43A5.43,5.43,0,0,0,139.13,54.35Z"/><path class="cls-1" d="M48.91,152.17a5.44,5.44,0,1,0-5.43-5.43A5.44,5.44,0,0,0,48.91,152.17Z"/><path class="cls-1" d="M182.61,0C133.68,0,93.52,33.73,90.42,76.22,43.82,78.56,0,112.16,0,157.61c0,19,7.52,37.39,21.2,52a33.05,33.05,0,0,1-8.74,31.14A5.43,5.43,0,0,0,16.3,250a60,60,0,0,0,41.54-16.79,123.7,123.7,0,0,0,37.81,5.92c48.92,0,89.08-33.72,92.19-76.21a121.61,121.61,0,0,0,32.58-5.8A59.92,59.92,0,0,0,262,173.91a5.43,5.43,0,0,0,3.84-9.27,33,33,0,0,1-8.73-31.14c13.68-14.58,21.19-33,21.19-52C278.26,34.3,231.07,0,182.61,0Zm-87,228.26c-12.82,0-27.44-2.52-37.23-6.41a5.42,5.42,0,0,0-6,1.38A49.12,49.12,0,0,1,28,237.7a44,44,0,0,0,3.31-32.35A5.41,5.41,0,0,0,30,203.06c-12.33-12.7-19.12-28.84-19.12-45.45C10.87,119.31,49.69,87,95.65,87c43.4,0,81.52,30.17,81.52,70.65C177.17,196.57,140.6,228.26,95.65,228.26ZM248.27,127a5.5,5.5,0,0,0-1.33,2.3,43.93,43.93,0,0,0,3.31,32.34,49,49,0,0,1-24.39-14.47,5.44,5.44,0,0,0-6-1.38c-8.48,3.38-20.59,5.71-32,6.28-1.58-20.55-11.83-39.87-29.36-54.21h70.89a5.44,5.44,0,0,0,0-10.87H141.76a101.24,101.24,0,0,0-40.45-10.71c3.13-36.51,38.4-65.38,81.3-65.38,46,0,84.78,32.35,84.78,70.65C267.39,98.13,260.6,114.27,248.27,127Z"/><path class="cls-1" d="M139.13,141.3H70.65a5.44,5.44,0,0,0,0,10.87h68.48a5.44,5.44,0,1,0,0-10.87Z"/><path class="cls-1" d="M139.13,173.91H48.91a5.44,5.44,0,0,0,0,10.87h90.22a5.44,5.44,0,1,0,0-10.87Z"/><path class="cls-1" d="M229.35,54.35H160.87a5.44,5.44,0,1,0,0,10.87h68.48a5.44,5.44,0,0,0,0-10.87Z"/></g></g></svg>