<svg xmlns="http://www.w3.org/2000/svg" viewBox="0 0 34.06 48.44"><defs><style>.cls-1{fill:#dd1c1a;}</style></defs><title>Asset 10</title><g id="Layer_2" data-name="Layer 2"><g id="Layer_1-2" data-name="Layer 1"><path class="cls-1" d="M17,0A17,17,0,0,0,2.54,26L16.06,47.77a1.42,1.42,0,0,0,1.21.67h0a1.42,1.42,0,0,0,1.21-.69l13.17-22A17,17,0,0,0,17,0ZM29.22,24.3l-12,20L5,24.49a14.2,14.2,0,1,1,24.27-.19Z"/><path class="cls-1" d="M17,8.52A8.52,8.52,0,1,0,25.55,17,8.52,8.52,0,0,0,17,8.52Zm0,14.21A5.7,5.7,0,1,1,22.72,17,5.7,5.7,0,0,1,17,22.73Z"/></g></g></svg>