<svg xmlns="http://www.w3.org/2000/svg" viewBox="0 0 29.83 29.83"><defs><style>.cls-1{fill:#dd1c1a;}</style></defs><title>Asset 7</title><g id="Layer_2" data-name="Layer 2"><g id="Layer_1-2" data-name="Layer 1"><path class="cls-1" d="M16,0H13.83a1.55,1.55,0,0,0-1.55,1.55V12.28h5.27V1.55A1.56,1.56,0,0,0,16,0Z"/><path class="cls-1" d="M13.82,29.83H16a1.55,1.55,0,0,0,1.55-1.55V17.55H12.28V28.28A1.55,1.55,0,0,0,13.82,29.83Z"/><path class="cls-1" d="M17.55,17.55H28.27A1.56,1.56,0,0,0,29.83,16V13.83a1.55,1.55,0,0,0-1.56-1.55H17.55Z"/><path class="cls-1" d="M0,13.77v2.29a1.49,1.49,0,0,0,1.49,1.49H12.28V12.28H1.49A1.49,1.49,0,0,0,0,13.77Z"/><rect class="cls-1" x="12.28" y="12.28" width="5.27" height="5.27"/></g></g></svg>