<svg xmlns="http://www.w3.org/2000/svg" viewBox="0 0 339.06 350"><defs><style>.cls-1{fill:#fff;}</style></defs><title>Asset 2</title><g id="Layer_2" data-name="Layer 2"><g id="Layer_1-2" data-name="Layer 1"><path class="cls-1" d="M337.39,35.18a4,4,0,0,0,.79-1.75c.67-3.78,2.62-17.37-3-21.75l-12.77-10c-5.58-4.36-18.3.8-21.82,2.36a4.12,4.12,0,0,0-1.52,1.19l-6.91,8.86a4,4,0,0,0,.68,5.6l32,25a4,4,0,0,0,5.59-.69Z"/><path class="cls-1" d="M140,210.63l-.61,31.27a5.53,5.53,0,0,0,7,5.45l30.2-8.16a5.5,5.5,0,0,0,2.92-1.94L319.61,57.93a5.53,5.53,0,0,0-.95-7.77l-4-3.15a5.53,5.53,0,0,0-7.78,1L169.59,223.62a5.4,5.4,0,0,1-2.45,1.79l-4.55,1.67a5.54,5.54,0,0,1-7.42-5.78l.51-4.82a5.56,5.56,0,0,1,1.15-2.83L294.08,38a5.53,5.53,0,0,0-.95-7.77l-4-3.16a5.54,5.54,0,0,0-7.78.95L141.21,207.33A5.56,5.56,0,0,0,140,210.63Z"/><path class="cls-1" d="M2.81,350H299.74a2.81,2.81,0,0,0,2.82-2.81V117.93a2.81,2.81,0,0,0-4.8-2l-10.3,10.3a2.81,2.81,0,0,0-.83,2v203a2.81,2.81,0,0,1-2.81,2.82H18.74a2.82,2.82,0,0,1-2.82-2.82V66.18a2.81,2.81,0,0,1,2.82-2.81h203a2.81,2.81,0,0,0,2-.83l10.3-10.3a2.81,2.81,0,0,0-2-4.8H2.81A2.81,2.81,0,0,0,0,50.26V347.19A2.81,2.81,0,0,0,2.81,350Z"/></g></g></svg>