<svg xmlns="http://www.w3.org/2000/svg" viewBox="0 0 170.79 170.79"><defs><style>.cls-1{fill:none;stroke:#fff;stroke-miterlimit:10;stroke-width:7px;}.cls-2{fill:#fff;}</style></defs><title>Asset 3</title><g id="Layer_2" data-name="Layer 2"><g id="Layer_1-2" data-name="Layer 1"><circle class="cls-1" cx="85.39" cy="85.39" r="81.89"/><path class="cls-2" d="M118.84,98.56A9.07,9.07,0,0,0,121,92.48a9.25,9.25,0,0,0-2-5.26A8.18,8.18,0,0,0,117,77.8c-2.43-2.22-6.57-3.21-12.29-2.94a48.54,48.54,0,0,0-7.53,1h0c-.76.13-1.57.3-2.4.49-.06-1,.11-3.42,1.91-8.9,2.15-6.52,2-11.51-.4-14.85a9.74,9.74,0,0,0-7.79-3.78,3.84,3.84,0,0,0-3,1.35c-1.7,2-1.5,5.62-1.29,7.3-2,5.42-7.68,18.71-12.47,22.4a2.52,2.52,0,0,0-.25.21,16.39,16.39,0,0,0-3,4.5,6.3,6.3,0,0,0-3-.76H56.18a6.36,6.36,0,0,0-6.36,6.36V115a6.37,6.37,0,0,0,6.36,6.37h9.34a6.31,6.31,0,0,0,3.67-1.17l3.6.43a153.09,153.09,0,0,0,20.41,1.12c1.82.14,3.53.21,5.12.21a34.29,34.29,0,0,0,7.12-.64c4.69-1,7.89-3,9.51-5.91a9.35,9.35,0,0,0,1-5.86,9.74,9.74,0,0,0,3.47-7.94A10.37,10.37,0,0,0,118.84,98.56Zm-62.66,18.7A2.23,2.23,0,0,1,54,115V90.14a2.24,2.24,0,0,1,2.23-2.24h9.34a2.24,2.24,0,0,1,2.24,2.24V115a2.24,2.24,0,0,1-2.24,2.24H56.18Zm58.74-20.49a2.05,2.05,0,0,0-.28,2.49,6.44,6.44,0,0,1,.71,2.56c.1,2-.86,3.78-2.88,5.3a2.09,2.09,0,0,0-.71,2.35,5.41,5.41,0,0,1-.41,4c-1,1.84-3.3,3.16-6.76,3.89a40.51,40.51,0,0,1-11.16.34h-.22a150.81,150.81,0,0,1-19.9-1.09h0l-1.55-.18a6.65,6.65,0,0,0,.14-1.35V90.14a6.62,6.62,0,0,0-.29-1.9A12.7,12.7,0,0,1,74.45,83C81.32,77.54,88,59.16,88.33,58.36a2,2,0,0,0,.09-1,9.52,9.52,0,0,1,.2-4.44A5.48,5.48,0,0,1,92.94,55c1.56,2.16,1.5,6-.19,11.13C90.18,73.88,90,78,92,79.79a3.35,3.35,0,0,0,3.34.6c.93-.22,1.82-.4,2.66-.54l.2,0c4.7-1,13.12-1.66,16,1,2.48,2.26.72,5.26.53,5.58a2.06,2.06,0,0,0,.36,2.67,5.77,5.77,0,0,1,1.7,3.56A5.7,5.7,0,0,1,114.92,96.77Z"/></g></g></svg>