<svg xmlns="http://www.w3.org/2000/svg" viewBox="0 0 170.79 170.79"><defs><style>.cls-1{fill:none;stroke:#fff;stroke-miterlimit:10;stroke-width:7px;}.cls-2{fill:#fff;}</style></defs><title>Asset 4</title><g id="Layer_2" data-name="Layer 2"><g id="Layer_1-2" data-name="Layer 1"><circle class="cls-1" cx="85.39" cy="85.39" r="81.89"/><path class="cls-2" d="M119.46,69.15A9.73,9.73,0,0,0,116,61.21a9.35,9.35,0,0,0-1-5.86c-1.62-2.93-4.82-4.92-9.51-5.91a34.23,34.23,0,0,0-7.12-.65c-1.59,0-3.3.08-5.12.22a153.09,153.09,0,0,0-20.41,1.12l-3.6.42a6.38,6.38,0,0,0-3.67-1.16H56.18a6.37,6.37,0,0,0-6.36,6.37V80.63A6.37,6.37,0,0,0,56.18,87h9.34a6.3,6.3,0,0,0,3-.76,16.54,16.54,0,0,0,3,4.5,2.52,2.52,0,0,0,.25.21c4.79,3.69,10.45,17,12.47,22.4-.21,1.68-.41,5.32,1.29,7.3a3.83,3.83,0,0,0,3,1.34,9.7,9.7,0,0,0,7.79-3.78c2.42-3.33,2.55-8.32.4-14.85-1.8-5.48-2-7.91-1.91-8.89.83.18,1.64.35,2.4.49h0a48.54,48.54,0,0,0,7.53,1c5.72.27,9.86-.72,12.29-2.94A8.18,8.18,0,0,0,119,83.57a9.28,9.28,0,0,0,2-5.26,9,9,0,0,0-2.12-6.08A10.37,10.37,0,0,0,119.46,69.15ZM56.18,53.54h9.34a2.23,2.23,0,0,1,2.24,2.23V80.65a2.24,2.24,0,0,1-2.24,2.23H56.18A2.23,2.23,0,0,1,54,80.65V55.76a2.23,2.23,0,0,1,2.23-2.24Zm60.65,24.61a5.81,5.81,0,0,1-1.7,3.57,2,2,0,0,0-.36,2.66c.19.33,2,3.33-.53,5.59-2.92,2.66-11.34,2-16,1l-.2,0c-.84-.14-1.73-.33-2.66-.54A3.33,3.33,0,0,0,92,91c-2,1.8-1.82,5.91.75,13.7,1.69,5.11,1.75,9,.19,11.13a5.48,5.48,0,0,1-4.32,2.06,9.53,9.53,0,0,1-.2-4.44,2,2,0,0,0-.09-1c-.29-.8-7-19.18-13.88-24.63a12.76,12.76,0,0,1-2.85-5.25,6.62,6.62,0,0,0,.29-1.9V55.76a6.65,6.65,0,0,0-.14-1.35l1.55-.18h0a150.81,150.81,0,0,1,19.9-1.09h.22a40.12,40.12,0,0,1,11.16.34c3.46.73,5.74,2.05,6.76,3.89a5.41,5.41,0,0,1,.41,4,2.09,2.09,0,0,0,.71,2.35q3,2.28,2.88,5.3a6.44,6.44,0,0,1-.71,2.56,2.05,2.05,0,0,0,.28,2.49A5.69,5.69,0,0,1,116.83,78.15Z"/></g></g></svg>