<svg xmlns="http://www.w3.org/2000/svg" viewBox="0 0 173.08 250"><defs><style>.cls-1{fill:#fff;}</style></defs><title>Asset 15</title><g id="Layer_2" data-name="Layer 2"><g id="Layer_1-2" data-name="Layer 1"><path class="cls-1" d="M86.54,173.07A46.26,46.26,0,0,0,120.49,159,46.26,46.26,0,0,0,134.61,125V48.08a46.3,46.3,0,0,0-14.12-34A46.3,46.3,0,0,0,86.54,0,46.3,46.3,0,0,0,52.59,14.12a46.31,46.31,0,0,0-14.13,34V125A46.27,46.27,0,0,0,52.59,159,46.26,46.26,0,0,0,86.54,173.07Z"/><path class="cls-1" d="M170.22,99a9.61,9.61,0,0,0-16.37,6.76V125q0,27.8-19.76,47.55T86.54,192.31q-27.79,0-47.55-19.76T19.23,125V105.77A9.23,9.23,0,0,0,16.38,99a9.27,9.27,0,0,0-6.76-2.86A9.24,9.24,0,0,0,2.86,99,9.2,9.2,0,0,0,0,105.77V125q0,33.21,22.16,57.77t54.76,28.16v19.84H38.46a9.62,9.62,0,0,0,0,19.23h96.15a9.62,9.62,0,0,0,0-19.23H96.16V210.93q32.6-3.6,54.76-28.16T173.08,125V105.77A9.22,9.22,0,0,0,170.22,99Z"/></g></g></svg>