<svg xmlns="http://www.w3.org/2000/svg" viewBox="0 0 516.62 65.8"><defs><style>.cls-1{fill:#dd1c1a;}</style></defs><title>Asset 8</title><g id="Layer_2" data-name="Layer 2"><g id="Layer_1-2" data-name="Layer 1"><path class="cls-1" d="M375.22,32.9c0,21.49.21,32.9.7,32.9s.7-11.41.7-32.9S376.41,0,375.92,0,375.22,11.41,375.22,32.9Z"/><path class="cls-1" d="M224,32.9c0,19.11.21,29.4.7,29.4s.7-10.29.7-29.4-.21-29.4-.7-29.4S224,13.79,224,32.9Z"/><path class="cls-1" d="M369.62,32.9c0,17.71.28,27.3.7,27.3s.7-9.59.7-27.3-.28-27.3-.7-27.3S369.62,15.19,369.62,32.9Z"/><path class="cls-1" d="M263.21,32.9c0,16.8.28,25.9.7,25.9s.7-9.1.7-25.9S264.33,7,263.91,7,263.21,16.1,263.21,32.9Z"/><path class="cls-1" d="M364,32.9c0,16.8.28,25.9.7,25.9s.7-9.1.7-25.9S365.14,7,364.72,7,364,16.1,364,32.9Z"/><path class="cls-1" d="M380.82,32.9c0,16.8.28,25.9.7,25.9s.7-9.1.7-25.9S381.94,7,381.52,7,380.82,16.1,380.82,32.9Z"/><path class="cls-1" d="M0,32.9C0,49.21.28,58.1.7,58.1s.7-8.89.7-25.2S1.12,7.7.7,7.7,0,16.59,0,32.9Z"/><path class="cls-1" d="M229.61,32.9c0,16.31.28,25.2.7,25.2s.7-8.89.7-25.2-.28-25.2-.7-25.2S229.61,16.59,229.61,32.9Z"/><path class="cls-1" d="M330.42,32.9c0,15.89.28,24.5.7,24.5s.7-8.61.7-24.5-.28-24.5-.7-24.5S330.42,17,330.42,32.9Z"/><path class="cls-1" d="M459.22,32.9c0,15.89.28,24.5.7,24.5s.7-8.61.7-24.5-.28-24.5-.7-24.5S459.22,17,459.22,32.9Z"/><path class="cls-1" d="M235.21,32.9c0,15.4.28,23.8.7,23.8s.7-8.4.7-23.8-.28-23.8-.7-23.8S235.21,17.5,235.21,32.9Z"/><path class="cls-1" d="M392,32.9c0,15.4.28,23.8.7,23.8s.7-8.4.7-23.8-.28-23.8-.7-23.8S392,17.5,392,32.9Z"/><path class="cls-1" d="M117.61,32.9c0,14.91.28,23.1.7,23.1s.7-8.19.7-23.1-.28-23.1-.7-23.1S117.61,18,117.61,32.9Z"/><path class="cls-1" d="M240.81,32.9c0,14.91.28,23.1.7,23.1s.7-8.19.7-23.1-.28-23.1-.7-23.1S240.81,18,240.81,32.9Z"/><path class="cls-1" d="M302.41,32.9c0,14.91.28,23.1.7,23.1s.7-8.19.7-23.1-.28-23.1-.7-23.1S302.41,18,302.41,32.9Z"/><path class="cls-1" d="M268.81,32.9c0,14.49.28,22.4.7,22.4s.7-7.91.7-22.4-.28-22.4-.7-22.4S268.81,18.41,268.81,32.9Z"/><path class="cls-1" d="M420,32.9c0,14.49.28,22.4.7,22.4s.7-7.91.7-22.4-.28-22.4-.7-22.4S420,18.41,420,32.9Z"/><path class="cls-1" d="M16.8,32.9c0,14,.28,21.7.7,21.7s.7-7.7.7-21.7-.28-21.7-.7-21.7S16.8,18.9,16.8,32.9Z"/><path class="cls-1" d="M112,32.9c0,14,.28,21.7.7,21.7s.7-7.7.7-21.7-.28-21.7-.7-21.7S112,18.9,112,32.9Z"/><path class="cls-1" d="M336,32.9c0,14,.28,21.7.7,21.7s.7-7.7.7-21.7-.28-21.7-.7-21.7S336,18.9,336,32.9Z"/><path class="cls-1" d="M431.22,32.9c0,14,.28,21.7.7,21.7s.7-7.7.7-21.7-.28-21.7-.7-21.7S431.22,18.9,431.22,32.9Z"/><path class="cls-1" d="M476,32.9c0,14,.28,21.7.7,21.7s.7-7.7.7-21.7-.28-21.7-.7-21.7S476,18.9,476,32.9Z"/><path class="cls-1" d="M5.6,32.9c0,13.51.28,21,.7,21s.7-7.49.7-21-.28-21-.7-21S5.6,19.39,5.6,32.9Z"/><path class="cls-1" d="M201.61,32.9c0,13.51.28,21,.7,21s.7-7.49.7-21-.28-21-.7-21S201.61,19.39,201.61,32.9Z"/><path class="cls-1" d="M218.41,32.9c0,13.51.28,21,.7,21s.7-7.49.7-21-.28-21-.7-21S218.41,19.39,218.41,32.9Z"/><path class="cls-1" d="M257.61,32.9c0,13.51.28,21,.7,21s.7-7.49.7-21-.28-21-.7-21S257.61,19.39,257.61,32.9Z"/><path class="cls-1" d="M347.22,32.9c0,13.51.28,21,.7,21s.7-7.49.7-21-.28-21-.7-21S347.22,19.39,347.22,32.9Z"/><path class="cls-1" d="M352.82,32.9c0,13.51.28,21,.7,21s.7-7.49.7-21-.28-21-.7-21S352.82,19.39,352.82,32.9Z"/><path class="cls-1" d="M397.62,32.9c0,13.51.28,21,.7,21s.7-7.49.7-21-.28-21-.7-21S397.62,19.39,397.62,32.9Z"/><path class="cls-1" d="M414.42,32.9c0,13.51.28,21,.7,21s.7-7.49.7-21-.28-21-.7-21S414.42,19.39,414.42,32.9Z"/><path class="cls-1" d="M67.2,32.9c0,13.09.28,20.3.7,20.3s.7-7.21.7-20.3-.28-20.3-.7-20.3S67.2,19.81,67.2,32.9Z"/><path class="cls-1" d="M140,32.9c0,13.09.28,20.3.7,20.3s.7-7.21.7-20.3-.28-20.3-.7-20.3S140,19.81,140,32.9Z"/><path class="cls-1" d="M274.41,32.9c0,13.09.28,20.3.7,20.3s.7-7.21.7-20.3-.28-20.3-.7-20.3S274.41,19.81,274.41,32.9Z"/><path class="cls-1" d="M280,32.9c0,13.09.28,20.3.7,20.3s.7-7.21.7-20.3-.28-20.3-.7-20.3S280,19.81,280,32.9Z"/><path class="cls-1" d="M296.81,32.9c0,13.09.28,20.3.7,20.3s.7-7.21.7-20.3-.28-20.3-.7-20.3S296.81,19.81,296.81,32.9Z"/><path class="cls-1" d="M324.82,32.9c0,13.09.28,20.3.7,20.3s.7-7.21.7-20.3-.28-20.3-.7-20.3S324.82,19.81,324.82,32.9Z"/><path class="cls-1" d="M403.22,32.9c0,13.09.28,20.3.7,20.3s.7-7.21.7-20.3-.28-20.3-.7-20.3S403.22,19.81,403.22,32.9Z"/><path class="cls-1" d="M179.21,32.55c0,12.39.28,19.25.7,19.25s.7-6.86.7-19.25-.28-19.25-.7-19.25S179.21,20.16,179.21,32.55Z"/><path class="cls-1" d="M252,32.9c0,12.6.28,19.6.7,19.6s.7-7,.7-19.6-.28-19.6-.7-19.6S252,20.3,252,32.9Z"/><path class="cls-1" d="M448,32.9c0,12.6.28,19.6.7,19.6s.7-7,.7-19.6-.28-19.6-.7-19.6S448,20.3,448,32.9Z"/><path class="cls-1" d="M453.62,32.9c0,12.6.28,19.6.7,19.6s.7-7,.7-19.6-.28-19.6-.7-19.6S453.62,20.3,453.62,32.9Z"/><path class="cls-1" d="M492.82,32.9c0,12.6.28,19.6.7,19.6s.7-7,.7-19.6-.28-19.6-.7-19.6S492.82,20.3,492.82,32.9Z"/><path class="cls-1" d="M44.8,32.55c0,11.9.28,18.55.7,18.55s.7-6.65.7-18.55S45.92,14,45.5,14,44.8,20.65,44.8,32.55Z"/><path class="cls-1" d="M61.6,32.9c0,12.11.28,18.9.7,18.9S63,45,63,32.9,62.72,14,62.3,14,61.6,20.79,61.6,32.9Z"/><path class="cls-1" d="M78.4,32.9c0,12.11.28,18.9.7,18.9s.7-6.79.7-18.9S79.52,14,79.1,14,78.4,20.79,78.4,32.9Z"/><path class="cls-1" d="M207.21,32.9c0,12.11.28,18.9.7,18.9s.7-6.79.7-18.9-.28-18.9-.7-18.9S207.21,20.79,207.21,32.9Z"/><path class="cls-1" d="M386.42,32.9c0,12.11.28,18.9.7,18.9s.7-6.79.7-18.9-.28-18.9-.7-18.9S386.42,20.79,386.42,32.9Z"/><path class="cls-1" d="M408.82,32.9c0,12.11.28,18.9.7,18.9s.7-6.79.7-18.9-.28-18.9-.7-18.9S408.82,20.79,408.82,32.9Z"/><path class="cls-1" d="M425.62,32.9c0,12.11.28,18.9.7,18.9s.7-6.79.7-18.9-.28-18.9-.7-18.9S425.62,20.79,425.62,32.9Z"/><path class="cls-1" d="M436.82,32.9c0,12.11.28,18.9.7,18.9s.7-6.79.7-18.9-.28-18.9-.7-18.9S436.82,20.79,436.82,32.9Z"/><path class="cls-1" d="M464.82,32.9c0,12.11.28,18.9.7,18.9s.7-6.79.7-18.9-.28-18.9-.7-18.9S464.82,20.79,464.82,32.9Z"/><path class="cls-1" d="M481.62,32.9c0,12.11.28,18.9.7,18.9s.7-6.79.7-18.9-.28-18.9-.7-18.9S481.62,20.79,481.62,32.9Z"/><path class="cls-1" d="M498.42,32.9c0,12.11.28,18.9.7,18.9s.7-6.79.7-18.9-.28-18.9-.7-18.9S498.42,20.79,498.42,32.9Z"/><path class="cls-1" d="M50.4,32.9c0,11.69.28,18.2.7,18.2s.7-6.51.7-18.2-.28-18.2-.7-18.2S50.4,21.21,50.4,32.9Z"/><path class="cls-1" d="M184.81,32.9c0,11.69.28,18.2.7,18.2s.7-6.51.7-18.2-.28-18.2-.7-18.2S184.81,21.21,184.81,32.9Z"/><path class="cls-1" d="M190.41,32.9c0,11.69.28,18.2.7,18.2s.7-6.51.7-18.2-.28-18.2-.7-18.2S190.41,21.21,190.41,32.9Z"/><path class="cls-1" d="M285.61,32.9c0,11.69.28,18.2.7,18.2s.7-6.51.7-18.2-.28-18.2-.7-18.2S285.61,21.21,285.61,32.9Z"/><path class="cls-1" d="M291.21,32.9c0,11.69.28,18.2.7,18.2s.7-6.51.7-18.2-.28-18.2-.7-18.2S291.21,21.21,291.21,32.9Z"/><path class="cls-1" d="M308,32.9c0,11.69.28,18.2.7,18.2s.7-6.51.7-18.2-.28-18.2-.7-18.2S308,21.21,308,32.9Z"/><path class="cls-1" d="M319.22,32.9c0,11.69.28,18.2.7,18.2s.7-6.51.7-18.2-.28-18.2-.7-18.2S319.22,21.21,319.22,32.9Z"/><path class="cls-1" d="M28,32.9c0,11.2.28,17.5.7,17.5s.7-6.3.7-17.5-.28-17.5-.7-17.5S28,21.7,28,32.9Z"/><path class="cls-1" d="M72.8,32.9c0,11.2.28,17.5.7,17.5s.7-6.3.7-17.5-.28-17.5-.7-17.5S72.8,21.7,72.8,32.9Z"/><path class="cls-1" d="M89.6,32.9c0,11.2.28,17.5.7,17.5s.7-6.3.7-17.5-.28-17.5-.7-17.5S89.6,21.7,89.6,32.9Z"/><path class="cls-1" d="M95.2,32.9c0,11.2.28,17.5.7,17.5s.7-6.3.7-17.5-.28-17.5-.7-17.5S95.2,21.7,95.2,32.9Z"/><path class="cls-1" d="M162.41,32.55c0,11,.28,17.15.7,17.15s.7-6.16.7-17.15-.28-17.15-.7-17.15S162.41,21.56,162.41,32.55Z"/><path class="cls-1" d="M168,32.9c0,11.2.28,17.5.7,17.5s.7-6.3.7-17.5-.28-17.5-.7-17.5S168,21.7,168,32.9Z"/><path class="cls-1" d="M173.61,32.9c0,11.2.28,17.5.7,17.5s.7-6.3.7-17.5-.28-17.5-.7-17.5S173.61,21.7,173.61,32.9Z"/><path class="cls-1" d="M196,32.9c0,11.2.28,17.5.7,17.5s.7-6.3.7-17.5-.28-17.5-.7-17.5S196,21.7,196,32.9Z"/><path class="cls-1" d="M358.42,32.9c0,11.2.28,17.5.7,17.5s.7-6.3.7-17.5-.28-17.5-.7-17.5S358.42,21.7,358.42,32.9Z"/><path class="cls-1" d="M470.42,32.9c0,11.2.28,17.5.7,17.5s.7-6.3.7-17.5-.28-17.5-.7-17.5S470.42,21.7,470.42,32.9Z"/><path class="cls-1" d="M11.2,32.9c0,10.71.28,16.8.7,16.8s.7-6.09.7-16.8-.28-16.8-.7-16.8S11.2,22.19,11.2,32.9Z"/><path class="cls-1" d="M33.6,32.9c0,10.71.28,16.8.7,16.8s.7-6.09.7-16.8-.28-16.8-.7-16.8S33.6,22.19,33.6,32.9Z"/><path class="cls-1" d="M106.41,32.9c0,10.71.28,16.8.7,16.8s.7-6.09.7-16.8-.28-16.8-.7-16.8S106.41,22.19,106.41,32.9Z"/><path class="cls-1" d="M123.21,32.9c0,10.71.28,16.8.7,16.8s.7-6.09.7-16.8-.28-16.8-.7-16.8S123.21,22.19,123.21,32.9Z"/><path class="cls-1" d="M212.81,32.9c0,10.71.28,16.8.7,16.8s.7-6.09.7-16.8-.28-16.8-.7-16.8S212.81,22.19,212.81,32.9Z"/><path class="cls-1" d="M246.41,32.9c0,10.71.28,16.8.7,16.8s.7-6.09.7-16.8-.28-16.8-.7-16.8S246.41,22.19,246.41,32.9Z"/><path class="cls-1" d="M313.61,32.9c0,10.71.28,16.8.7,16.8s.7-6.09.7-16.8-.28-16.8-.7-16.8S313.61,22.19,313.61,32.9Z"/><path class="cls-1" d="M84,32.9c0,10.29.28,16.1.7,16.1s.7-5.81.7-16.1-.28-16.1-.7-16.1S84,22.61,84,32.9Z"/><path class="cls-1" d="M134.41,32.9c0,10.29.28,16.1.7,16.1s.7-5.81.7-16.1-.28-16.1-.7-16.1S134.41,22.61,134.41,32.9Z"/><path class="cls-1" d="M151.21,32.9c0,10.29.28,16.1.7,16.1s.7-5.81.7-16.1-.28-16.1-.7-16.1S151.21,22.61,151.21,32.9Z"/><path class="cls-1" d="M156.81,32.9c0,10.29.28,16.1.7,16.1s.7-5.81.7-16.1-.28-16.1-.7-16.1S156.81,22.61,156.81,32.9Z"/><path class="cls-1" d="M442.42,32.9c0,10.29.28,16.1.7,16.1s.7-5.81.7-16.1-.28-16.1-.7-16.1S442.42,22.61,442.42,32.9Z"/><path class="cls-1" d="M39.2,32.9c0,9.8.28,15.4.7,15.4s.7-5.6.7-15.4-.28-15.4-.7-15.4S39.2,23.1,39.2,32.9Z"/><path class="cls-1" d="M128.81,32.9c0,9.31.28,14.7.7,14.7s.7-5.39.7-14.7-.28-14.7-.7-14.7S128.81,23.59,128.81,32.9Z"/><path class="cls-1" d="M145.61,32.9c0,9.31.28,14.7.7,14.7s.7-5.39.7-14.7-.28-14.7-.7-14.7S145.61,23.59,145.61,32.9Z"/><path class="cls-1" d="M341.62,32.9c0,9.31.28,14.7.7,14.7s.7-5.39.7-14.7-.28-14.7-.7-14.7S341.62,23.59,341.62,32.9Z"/><path class="cls-1" d="M487.22,32.9c0,9.31.28,14.7.7,14.7s.7-5.39.7-14.7-.28-14.7-.7-14.7S487.22,23.59,487.22,32.9Z"/><path class="cls-1" d="M22.4,32.9c0,8.89.28,14,.7,14s.7-5.11.7-14-.28-14-.7-14S22.4,24,22.4,32.9Z"/><path class="cls-1" d="M56,32.9c0,8.89.28,14,.7,14s.7-5.11.7-14-.28-14-.7-14S56,24,56,32.9Z"/><path class="cls-1" d="M100.8,32.9c0,8.89.28,14,.7,14s.7-5.11.7-14-.28-14-.7-14S100.8,24,100.8,32.9Z"/><path class="cls-1" d="M515.22,32.9c0,4.2.28,7,.7,7s.7-2.8.7-7-.28-7-.7-7S515.22,28.7,515.22,32.9Z"/><path class="cls-1" d="M509.62,32.9c0,3.71.28,6.3.7,6.3s.7-2.59.7-6.3-.28-6.3-.7-6.3S509.62,29.19,509.62,32.9Z"/><path class="cls-1" d="M504,32.9c0,3.29.28,5.6.7,5.6s.7-2.31.7-5.6-.28-5.6-.7-5.6S504,29.61,504,32.9Z"/></g></g></svg>