<svg xmlns="http://www.w3.org/2000/svg" viewBox="0 0 197.51 207.91"><defs><style>.cls-1{fill:#fff;}</style></defs><title>Asset 9</title><g id="Layer_2" data-name="Layer 2"><g id="Layer_1-2" data-name="Layer 1"><path class="cls-1" d="M190.58,207.91H38.11A6.93,6.93,0,0,1,31.18,201v-90.1a3.47,3.47,0,0,1,6.93,0V201H190.58V6.93H38.11V46.12a3.47,3.47,0,1,1-6.93,0V6.93A6.93,6.93,0,0,1,38.11,0H190.58a6.93,6.93,0,0,1,6.93,6.93V201A6.93,6.93,0,0,1,190.58,207.91Zm-10.4-13.86H48.51A3.47,3.47,0,0,1,45,190.58v-45a3.47,3.47,0,0,1,3.47-3.47H180.18a3.47,3.47,0,0,1,3.47,3.47v45A3.47,3.47,0,0,1,180.18,194.05ZM52,187.12H176.72V149H52Zm128.21-52H48.51A3.47,3.47,0,0,1,45,131.68v-20.8a3.47,3.47,0,0,1,6.93,0v17.33H176.72V20.79H48.51a3.47,3.47,0,1,1,0-6.93H180.18a3.47,3.47,0,0,1,3.47,3.47V131.68A3.46,3.46,0,0,1,180.18,135.14Z"/><path class="cls-1" d="M180.18,135.14H48.51A3.47,3.47,0,0,1,45,131.68v-20.8a3.47,3.47,0,0,1,6.93,0v17.33H176.72V20.79H48.51a3.47,3.47,0,1,1,0-6.93H180.18a3.47,3.47,0,0,1,3.47,3.47V131.68A3.46,3.46,0,0,1,180.18,135.14Z"/><path class="cls-1" d="M180.18,194.05H48.51A3.47,3.47,0,0,1,45,190.58v-45a3.47,3.47,0,0,1,3.47-3.47H180.18a3.47,3.47,0,0,1,3.47,3.47v45A3.47,3.47,0,0,1,180.18,194.05ZM52,187.12H176.72V149H52Z"/><path class="cls-1" d="M180.18,135.14H48.51A3.47,3.47,0,0,1,45,131.68v-20.8a3.47,3.47,0,0,1,6.93,0v17.33H176.72V20.79H48.51a3.47,3.47,0,1,1,0-6.93H180.18a3.47,3.47,0,0,1,3.47,3.47V131.68A3.46,3.46,0,0,1,180.18,135.14Z"/><path class="cls-1" d="M135.14,114.35H3.46a3.45,3.45,0,0,1-2.93-1.62,3.5,3.5,0,0,1-.19-3.35L45.39,15.82a3.46,3.46,0,0,1,3.12-2H180.18a3.46,3.46,0,0,1,3.12,5l-45,93.56A3.46,3.46,0,0,1,135.14,114.35ZM9,107.42H133l41.71-86.63h-124Z"/><path class="cls-1" d="M126.43,100.49H25.52a3.47,3.47,0,0,1-3.12-5L54.1,29.68a3.46,3.46,0,0,1,3.12-2H158.13a3.44,3.44,0,0,1,2.93,1.63,3.48,3.48,0,0,1,.19,3.34L129.54,98.53A3.45,3.45,0,0,1,126.43,100.49ZM31,93.56h93.22l28.36-58.91H59.4Z"/><path class="cls-1" d="M180.18,194.05H48.51A3.47,3.47,0,0,1,45,190.58v-45a3.47,3.47,0,0,1,3.47-3.47H180.18a3.47,3.47,0,0,1,3.47,3.47v45A3.47,3.47,0,0,1,180.18,194.05ZM52,187.12H176.72V149H52Z"/><path class="cls-1" d="M180.18,86.63a3.47,3.47,0,0,1-2.45-1L156.94,64.82a3.47,3.47,0,0,1,4.9-4.9l20.79,20.79a3.46,3.46,0,0,1-2.45,5.92Z"/><path class="cls-1" d="M93.55,135.14a3.45,3.45,0,0,1-2.44-1l-20.8-20.8a3.46,3.46,0,0,1,4.9-4.89L96,129.23a3.46,3.46,0,0,1-2.46,5.91Z"/></g></g></svg>